<svg t="1639624139811" class="icon" viewBox="0 0 1024 1024" version="1.1" xmlns="http://www.w3.org/2000/svg" p-id="1057" width="32" height="32"><path d="M988.11626773 271.93727787c0-68.59589867-55.60782293-124.2037216-124.2037216-124.2037216L159.41725653 147.73355627c-68.59589867 0-124.2037216 55.60782293-124.2037216 124.2037216l0 478.54928c0 68.59589867 55.60782293 124.2037216 124.2037216 124.2037216l704.49528854 0c68.59589867 0 124.2037216-55.60782293 124.2037216-124.2037216L988.11626773 271.93727787zM865.93514453 192.4861472c12.8636416 0 25.00796587 3.69700053 35.75404587 9.17209813L531.9989504 551.8374464c-1.30983147 1.2388832-1.23342507 0.97800747-1.8697856 1.99312747-1.52158827 1.13846187-6.4596544 4.18382187-16.4798688 4.18382186-10.02348907 0-14.960464-2.93838933-16.48096-4.0735776-0.72149867-1.14937707-0.7062176-0.76406827-2.1284768-2.06953493l-376.6640032-346.04013227c12.3833696-8.06092373 27.1419008-13.34391253 42.98759253-13.34391253L865.93514453 192.4872384zM943.36367573 751.45037547c0 43.58138347-33.8460576 78.48840427-77.4285312 78.48840426L161.36235733 829.93877973c-43.58247467 0-80.304704-34.9070208-80.304704-78.48840426L81.05765333 272.70134613c0-11.33877867 3.05081707-22.1176032 7.3699872-31.87476053l374.91865174 343.57000747c5.239328 5.6562912 20.7783008 18.8550304 50.14364053 18.8550304 29.65241173 0 45.12370987-13.45961493 50.21458987-19.01875947l369.92055146-350.8264768c6.66813653 11.58437227 9.73860053 24.99595947 9.73860054 39.29386667L943.36367573 751.45037547z" p-id="1058"></path></svg>
