<svg t="1639623999739" class="icon" viewBox="0 0 1024 1024" version="1.1" xmlns="http://www.w3.org/2000/svg" p-id="1056" width="32" height="32"><path d="M962 572h-30V62c0-18-12-30-30-30H302c-18 0-30 12-30 30v90H122c-18 0-30 12-30 30v390H62c-18 0-30 12-30 30v360c0 18 12 30 30 30h900c18 0 30-12 30-30V602c0-18-12-30-30-30zM872 92v480H644c-12 0-24 12-24 30v90h-210v-90c0-18-18-30-30-30H332V92h540zM152 212h120v360H152V212z m780 720H92V632h258v90c0 18 12 30 30 30h270c18 0 30-12 30-30v-90H932v300z" p-id="1057"></path><path d="M422 272h360c18 0 30-12 30-30s-12-30-30-30H422c-18 0-30 12-30 30s12 30 30 30z m0 180h360c18 0 30-12 30-30s-12-30-30-30H422c-18 0-30 12-30 30s12 30 30 30z" p-id="1058"></path></svg>
