<svg t="1639623966911" class="icon" viewBox="0 0 1024 1024" version="1.1" xmlns="http://www.w3.org/2000/svg" p-id="1055" width="32" height="32"><path d="M402.10928375 131.31034437C294.57716937 131.31034437 207.83003001 220.80118062 207.83003001 330.68738187 207.83003001 440.57358311 294.57716937 530.06443625 402.10928375 530.06443625 509.64139906 530.06443625 596.38853657 440.57358311 596.38853657 330.68738187 596.38853657 220.80118062 509.64139906 131.31034437 402.10928375 131.31034437ZM402.10928375 463.85753937C331.61151969 463.85753937 274.03692594 404.46192594 274.03692594 330.68738187 274.03692594 256.91285562 331.61151969 197.51724125 402.10928375 197.51724125 472.60704687 197.51724125 530.18164063 256.91285562 530.18164063 330.68738187 530.18164063 404.46192594 472.60704687 463.85753937 402.10928375 463.85753937ZM32.09494812 853.74641094C30.65173531 872.95212125 45.84546219 889.33041687 65.10532719 889.33041687L739.11324125 889.33041687C758.37378406 889.33041687 773.56774906 872.95101219 772.12349001 853.74468969 759.51940343 686.13049344 646.69080688 554.55223156 507.25708343 554.55223156L296.96223313 554.55223156C157.45775938 554.55223156 44.69227156 686.10614656 32.09494812 853.74641094ZM507.25708343 620.75912844C608.35156345 620.75912844 695.88602375 722.8399175 706.10299063 858.70924719L739.11324125 823.12352 65.10532719 823.12352 98.11570531 858.70752594C108.32769406 722.81037219 195.80406594 620.75912844 296.96223313 620.75912844L507.25708343 620.75912844ZM958.89843031 280.76309563C977.18096 280.76309563 992.00187875 265.94218437 992.00187875 247.65964719 992.00187875 229.37712594 977.18096 214.55619875 958.89843031 214.55619875L717.13472187 214.55619875C698.85219219 214.55619875 684.03127344 229.37712594 684.03127344 247.65964719 684.03127344 265.94218437 698.85219219 280.76309563 717.13472187 280.76309563L958.89843031 280.76309563ZM958.89843031 462.83206062C977.18096 462.83206062 992.00187875 448.01115031 992.00187875 429.72861219 992.00187875 411.44609094 977.18096 396.62516375 958.89843031 396.62516375L702.48237594 396.62516375C684.19984625 396.62516375 669.3789275 411.44609094 669.3789275 429.72861219 669.3789275 448.01115031 684.19984625 462.83206062 702.48237594 462.83206062L958.89843031 462.83206062ZM958.89843031 644.90102656C977.18096 644.90102656 992.00187875 630.08011625 992.00187875 611.79757813 992.00187875 593.51505687 977.18096 578.69412969 958.89843031 578.69412969L761.09175969 578.69412969C742.80923001 578.69412969 727.98831125 593.51505687 727.98831125 611.79757813 727.98831125 630.08011625 742.80923001 644.90102656 761.09175969 644.90102656L958.89843031 644.90102656Z" p-id="1056"></path></svg>
