<svg t="1639624244907" class="icon" viewBox="0 0 1024 1024" version="1.1" xmlns="http://www.w3.org/2000/svg" p-id="1058" width="32" height="32"><path d="M894.55033584 962H129.44966416A31.45973115 31.45973115 0 0 1 97.98993301 930.54026885V93.45973115A31.45973115 31.45973115 0 0 1 129.44966416 62h765.10067168a31.45973115 31.45973115 0 0 1 31.45973115 31.45973115v837.0805377a31.45973115 31.45973115 0 0 1-31.45973115 31.45973115zM160.90939619 899.08053682h702.18120762V124.91946318H160.90939619z" p-id="1059"></path><path d="M324.50000029 848.7449668A31.45973115 31.45973115 0 0 1 291.7818793 817.03355732V446.31208057a31.45973115 31.45973115 0 0 1 62.91946318 0V817.03355732A31.45973115 31.45973115 0 0 1 324.50000029 848.7449668zM700.25503378 508.97986542H475.50671123a31.45973115 31.45973115 0 0 1 0-62.91946318h226.51006729a31.45973115 31.45973115 0 0 1 0 62.91946319zM704.28187901 320.22147675H307.63758359a31.45973115 31.45973115 0 0 1 0-62.91946318h396.64429542a31.45973115 31.45973115 0 0 1 0 62.91946318zM700.25503378 663.25838925H475.50671123a31.45973115 31.45973115 0 1 1 0-62.91946318h226.51006729a31.45973115 31.45973115 0 0 1 0 62.91946319zM700.25503378 810.99328818H475.50671123a31.45973115 31.45973115 0 0 1 0-62.9194623h226.51006729a31.45973115 31.45973115 0 0 1 0 62.9194623z" p-id="1060"></path></svg>
