<svg t="1639624110189" class="icon" viewBox="0 0 1024 1024" version="1.1" xmlns="http://www.w3.org/2000/svg" p-id="1057" width="32" height="32"><path d="M954.6875 326.375c-24.09375-57-58.6875-108.28125-102.65625-152.25-43.96875-43.96875-95.15625-78.46875-152.25-102.65625C640.8125 46.53125 578.09375 33.875 513.40625 33.875S386.09375 46.53125 327.03125 71.5625c-57 24.09375-108.28125 58.6875-152.25 102.65625C130.8125 218.09375 96.3125 269.375 72.125 326.375 47.1875 385.4375 34.53125 448.15625 34.53125 512.75c0 64.6875 12.65625 127.40625 37.6875 186.46875 24.09375 57 58.6875 108.28125 102.65625 152.25 43.96875 43.96875 95.15625 78.46875 152.25 102.65625 59.0625 24.9375 121.78125 37.6875 186.46875 37.6875s127.40625-12.65625 186.46875-37.6875C757.0625 930.03125 808.34375 895.4375 852.3125 851.46875c43.96875-43.96875 78.46875-95.15625 102.65625-152.25 24.9375-59.0625 37.6875-121.78125 37.6875-186.46875-0.28125-64.59375-12.9375-127.3125-37.96875-186.375zM513.40625 954.21875c-243.375 0-441.375-198-441.375-441.375S270.03125 71.375 513.40625 71.375s441.375 198 441.375 441.375-197.90625 441.46875-441.375 441.46875z" p-id="1058"></path><path d="M619.8125 149.1875H407.09375c-51.46875 0-96.09375 23.71875-96.09375 78.65625v579.84375c0 51.46875 41.25 91.40625 96.09375 91.40625h212.8125c54.9375 0 96-44.625 96-99.46875V223.15625c0-51.46875-41.25-73.96875-96.09375-73.96875z m-99.84375 12.1875c3.5625 0 6.46875 3 6.46875 6.46875s-3 6.46875-6.46875 6.46875c-3.65625 0-6.46875-3-6.46875-6.46875 0-3.5625 2.90625-6.46875 6.46875-6.46875z m-33.09375 34.875c0-3.75 3.09375-6.84375 6.84375-6.84375h55.96875c3.75 0 6.84375 3.09375 6.84375 6.84375v0.5625c0 3.75-3.09375 6.84375-6.84375 6.84375h-55.96875c-3.75 0-6.84375-3.09375-6.84375-6.84375v-0.5625z m-21.09375-6.09375c3.65625 0 6.46875 3 6.46875 6.46875 0 3.65625-2.90625 6.46875-6.46875 6.46875s-6.46875-3-6.46875-6.46875c-0.09375-3.5625 2.90625-6.46875 6.46875-6.46875z m47.71875 684.46875c-17.8125 0-32.25-14.53125-32.25-32.25 0-17.8125 14.53125-32.25 32.25-32.25 17.8125 0 32.25 14.53125 32.25 32.25 0.09375 17.71875-14.4375 32.25-32.25 32.25z m169.21875-95.25c0 5.15625-4.3125 9.46875-9.5625 9.46875H353.75c-5.25 0-9.5625-4.3125-9.5625-9.5625V236.75c0-5.25 4.3125-9.5625 9.5625-9.5625H673.25c5.25 0 9.5625 4.3125 9.5625 9.5625v542.625z" p-id="1059"></path></svg>
