<svg t="1639624334947" class="icon" viewBox="0 0 1024 1024" version="1.1" xmlns="http://www.w3.org/2000/svg" p-id="1058" width="32" height="32"><path d="M837.22666667 192.64C762.13333333 114.66666667 658.56 70.50666667 550.4 70.61333333c-9.81333333 0.10666667-17.70666667 8.21333333-17.70666667 18.02666667v398.72c-0.10666667 6.4 3.30666667 12.37333333 8.85333334 15.68l336 199.25333333c2.66666667 1.6 5.76 2.45333333 8.85333333 2.56 6.4 0 12.26666667-3.52 15.36-9.06666666 35.73333333-63.68 54.4-135.46666667 54.29333333-208.42666667 0.53333333-110.08-42.13333333-215.89333333-118.82666666-294.72z m42.34666666 469.01333333L568 476.90666667V107.2C768 119.89333333 922.98666667 286.93333333 920.74666667 487.25333333c0 60.58666667-14.08 120.21333333-41.17333334 174.4zM829.33333333 733.86666667c-1.06666667-4.58666667-3.94666667-8.64-8.10666666-10.98666667l-327.46666667-194.13333333V140.58666667c0.10666667-9.81333333-7.68-17.92-17.6-18.13333334h-0.10666667c-108.26666667 0-211.84 44.05333333-286.82666666 122.02666667-76.58666667 78.93333333-119.25333333 184.74666667-118.72 294.72-0.10666667 72.96 18.56 144.74666667 54.29333333 208.42666667 34.88 61.97333333 85.12 113.92 145.81333333 150.82666666 126.4 76.69333333 285.01333333 76.69333333 411.52 0C742.82666667 861.54666667 792.96 809.6 827.73333333 747.62666667c2.34666667-4.16 2.98666667-9.06666667 1.6-13.76zM105.81333333 539.2c-2.24-200.32 152.74666667-367.36 352.64-380.05333333v369.6L146.98666667 713.6c-27.09333333-54.08-41.17333333-113.81333333-41.17333334-174.4z m370.34666667 380.58666667c-127.04-0.85333333-244.69333333-66.88-311.57333333-174.82666667l311.57333333-184.85333333 311.78666667 184.85333333c-66.98666667 107.94666667-184.74666667 173.97333333-311.78666667 174.82666667z" p-id="1059"></path></svg>
