<svg t="1639990830969" class="icon" viewBox="0 0 1024 1024" version="1.1" xmlns="http://www.w3.org/2000/svg" p-id="9283" width="32" height="32"><path d="M919.800824 955.849961H136.075373a374.825216 374.825216 0 0 1 374.825215-356.083955 299.860173 299.860173 0 1 0-150.952337-41.230774A442.975255 442.975255 0 0 0 67.925333 974.591222V989.92498a34.07502 34.07502 0 0 0 34.07502 34.07502h817.800471a34.07502 34.07502 0 0 0 0-68.150039zM279.871955 300.928084A231.028633 231.028633 0 1 1 510.900588 531.615967a231.369383 231.369383 0 0 1-231.028633-230.687883z m555.42282 432.411999a51.112529 51.112529 0 0 1 0 102.225059h-195.931363a51.112529 51.112529 0 0 1 0-102.225059h195.931363m0-68.15004h-195.931363a119.262569 119.262569 0 0 0 0 238.525138h195.931363a119.262569 119.262569 0 0 0 0-238.525138z" p-id="9284"></path></svg>
