<svg t="1639991097678" class="icon" viewBox="0 0 1024 1024" version="1.1" xmlns="http://www.w3.org/2000/svg" p-id="2145" width="32" height="32"><path d="M808.35715 213.332736c-164.707272-164.709319-432.683537-164.709319-597.333504 0-164.709319 164.649967-164.709319 432.624185 0 597.333504 164.649967 164.709319 432.626231 164.709319 597.333504 0C973.067492 645.956921 973.067492 377.982704 808.35715 213.332736zM765.48983 767.767198c-141.075039 141.077086-370.609783 141.077086-511.627517 0-141.078109-141.017734-141.078109-370.520755 0-511.596817 141.017734-141.017734 370.552477-141.077086 511.627517 0C906.506541 397.188114 906.506541 626.750487 765.48983 767.767198z" p-id="2146"></path><path d="M500.686838 686.040848c-20.432355 0.061398-37.063127 16.692171-37.063127 37.095873 0 20.458961 16.630772 37.090756 37.092803 37.090756 20.432355 0 37.066197-16.631796 37.066197-37.151132C537.781688 702.672644 521.147846 686.040848 500.686838 686.040848z" p-id="2147"></path><path d="M505.832022 265.144776c-72.362075 0-136.290059 41.640376-158.933779 103.683431-5.26491 14.508435-9.813506 38.620599-5.26491 58.753125 3.048429 13.81975 17.709337 22.974247 31.320333 19.863397 14.117532-3.171226 23.0029-17.23043 19.832697-31.290657-1.556449-7.210215-0.060375-20.132526 3.350304-29.435403 12.533454-34.342156 51.27378-69.043493 109.60735-69.043493 68.681242 0 116.635417 35.091216 116.635417 85.375459 0 37.572734-23.302729 51.1561-64.525596 72.034617-37.303604 18.847254-83.761706 42.241057-83.761706 101.289917L474.092134 629.981065c0 14.478759 11.784394 26.2652 26.204825 26.2652 14.449084 0 26.235524-11.786441 26.235524-26.2652l0-53.606919c0.060375-25.605168 18.936281-36.317137 55.042617-54.504358 41.6107-20.968567 93.421716-47.025013 93.421716-118.820176C674.997839 321.862545 605.418135 265.144776 505.832022 265.144776z" p-id="2148"></path></svg>
